# MagicaVoxel @ Ephtracy

# group
o 

# material
mtllib Heart.mtl
usemtl palette

# normals
vn -1 0 0
vn 1 0 0
vn 0 0 1
vn 0 0 -1
vn 0 -1 0
vn 0 1 0

# texcoords
vt 0.841797 0.5
vt 0.845703 0.5
vt 0.857422 0.5

# verts
v 2.1 2.7 -3
v 2.1 2.7 -3.5
v 2.1 2.9 -3
v 2.1 2.9 -3.5
v 2.2 2.6 -3
v 2.2 2.6 -3.5
v 2.2 2.7 -3
v 2.2 2.7 -3.5
v 2.2 2.9 -3
v 2.2 2.9 -3.5
v 2.2 3 -3
v 2.2 3 -3.5
v 2.3 2.5 -3
v 2.3 2.5 -3.5
v 2.3 2.6 -3
v 2.3 2.6 -3.5
v 2.3 3 -3
v 2.3 3 -3.5
v 2.3 3.1 -3
v 2.3 3.1 -3.5
v 2.4 2.4 -3
v 2.4 2.4 -3.5
v 2.4 2.5 -3
v 2.4 2.5 -3.5
v 2.4 3.1 -3
v 2.4 3.1 -3.5
v 2.4 3.2 -3
v 2.4 3.2 -3.5
v 2.5 2.3 -3
v 2.5 2.3 -3.5
v 2.5 2.4 -3
v 2.5 2.4 -3.5
v 2.6 2.2 -3
v 2.6 2.2 -3.5
v 2.6 2.3 -3
v 2.6 2.3 -3.5
v 2.7 2.1 -3
v 2.7 2.1 -3.5
v 2.7 2.2 -3
v 2.7 2.2 -3.5
v 2.8 2 -3
v 2.8 2 -3.5
v 2.8 2.1 -3
v 2.8 2.1 -3.5
v 3.1 2.7 -3
v 3.1 2.7 -3.5
v 3.1 2.8 -3
v 3.1 2.8 -3.5
v 3.2 2.8 -3
v 3.2 2.8 -3.5
v 3.2 2.9 -3
v 3.2 2.9 -3.5
v 3.3 2.9 -3
v 3.3 2.9 -3.5
v 3.3 3 -3
v 3.3 3 -3.5
v 3.4 3 -3
v 3.4 3 -3.5
v 3.4 3.1 -3
v 3.4 3.1 -3.5
v 3.5 3.1 -3
v 3.5 3.1 -3.5
v 3.5 3.2 -3
v 3.5 3.2 -3.5
v 2.5 3.1 -3
v 2.5 3.1 -3.5
v 2.5 3.2 -3
v 2.5 3.2 -3.5
v 2.6 3 -3
v 2.6 3 -3.5
v 2.6 3.1 -3
v 2.6 3.1 -3.5
v 2.7 2.9 -3
v 2.7 2.9 -3.5
v 2.7 3 -3
v 2.7 3 -3.5
v 2.8 2.8 -3
v 2.8 2.8 -3.5
v 2.8 2.9 -3
v 2.8 2.9 -3.5
v 2.9 2.7 -3
v 2.9 2.7 -3.5
v 2.9 2.8 -3
v 2.9 2.8 -3.5
v 3.2 2 -3
v 3.2 2 -3.5
v 3.2 2.1 -3
v 3.2 2.1 -3.5
v 3.3 2.1 -3
v 3.3 2.1 -3.5
v 3.3 2.2 -3
v 3.3 2.2 -3.5
v 3.4 2.2 -3
v 3.4 2.2 -3.5
v 3.4 2.3 -3
v 3.4 2.3 -3.5
v 3.5 2.3 -3
v 3.5 2.3 -3.5
v 3.5 2.4 -3
v 3.5 2.4 -3.5
v 3.6 2.4 -3
v 3.6 2.4 -3.5
v 3.6 2.5 -3
v 3.6 2.5 -3.5
v 3.6 3.1 -3
v 3.6 3.1 -3.5
v 3.6 3.2 -3
v 3.6 3.2 -3.5
v 3.7 2.5 -3
v 3.7 2.5 -3.5
v 3.7 2.6 -3
v 3.7 2.6 -3.5
v 3.7 3 -3
v 3.7 3 -3.5
v 3.7 3.1 -3
v 3.7 3.1 -3.5
v 3.8 2.6 -3
v 3.8 2.6 -3.5
v 3.8 2.7 -3
v 3.8 2.7 -3.5
v 3.8 2.9 -3
v 3.8 2.9 -3.5
v 3.8 3 -3
v 3.8 3 -3.5
v 3.9 2.7 -3
v 3.9 2.7 -3.5
v 3.9 2.9 -3
v 3.9 2.9 -3.5
v 2.1 2.7 -3
v 2.1 2.9 -3
v 2.2 2.6 -3
v 2.2 2.7 -3
v 2.2 2.8 -3
v 2.2 2.9 -3
v 2.2 3 -3
v 2.3 2.5 -3
v 2.3 2.6 -3
v 2.3 2.7 -3
v 2.3 2.8 -3
v 2.3 3 -3
v 2.3 3.1 -3
v 2.4 2.4 -3
v 2.4 2.5 -3
v 2.4 2.6 -3
v 2.4 2.7 -3
v 2.4 2.9 -3
v 2.4 3 -3
v 2.4 3.1 -3
v 2.4 3.2 -3
v 2.5 2.3 -3
v 2.5 2.4 -3
v 2.5 2.5 -3
v 2.5 2.6 -3
v 2.5 2.9 -3
v 2.5 3 -3
v 2.5 3.1 -3
v 2.5 3.2 -3
v 2.6 2.2 -3
v 2.6 2.3 -3
v 2.6 2.4 -3
v 2.6 2.5 -3
v 2.6 2.8 -3
v 2.6 2.9 -3
v 2.6 3 -3
v 2.6 3.1 -3
v 2.7 2.1 -3
v 2.7 2.2 -3
v 2.7 2.3 -3
v 2.7 2.4 -3
v 2.7 2.7 -3
v 2.7 2.8 -3
v 2.7 2.9 -3
v 2.7 3 -3
v 2.8 2 -3
v 2.8 2.1 -3
v 2.8 2.2 -3
v 2.8 2.3 -3
v 2.8 2.6 -3
v 2.8 2.7 -3
v 2.8 2.8 -3
v 2.8 2.9 -3
v 2.9 2.1 -3
v 2.9 2.2 -3
v 2.9 2.7 -3
v 2.9 2.8 -3
v 3.1 2.1 -3
v 3.1 2.2 -3
v 3.1 2.7 -3
v 3.1 2.8 -3
v 3.2 2 -3
v 3.2 2.1 -3
v 3.2 2.2 -3
v 3.2 2.3 -3
v 3.2 2.6 -3
v 3.2 2.7 -3
v 3.2 2.8 -3
v 3.2 2.9 -3
v 3.3 2.1 -3
v 3.3 2.2 -3
v 3.3 2.3 -3
v 3.3 2.4 -3
v 3.3 2.7 -3
v 3.3 2.8 -3
v 3.3 2.9 -3
v 3.3 3 -3
v 3.4 2.2 -3
v 3.4 2.3 -3
v 3.4 2.4 -3
v 3.4 2.5 -3
v 3.4 2.8 -3
v 3.4 2.9 -3
v 3.4 3 -3
v 3.4 3.1 -3
v 3.5 2.3 -3
v 3.5 2.4 -3
v 3.5 2.5 -3
v 3.5 2.6 -3
v 3.5 2.9 -3
v 3.5 3 -3
v 3.5 3.1 -3
v 3.5 3.2 -3
v 3.6 2.4 -3
v 3.6 2.5 -3
v 3.6 2.6 -3
v 3.6 2.7 -3
v 3.6 2.9 -3
v 3.6 3 -3
v 3.6 3.1 -3
v 3.6 3.2 -3
v 3.7 2.5 -3
v 3.7 2.6 -3
v 3.7 2.7 -3
v 3.7 2.8 -3
v 3.7 3 -3
v 3.7 3.1 -3
v 3.8 2.6 -3
v 3.8 2.7 -3
v 3.8 2.8 -3
v 3.8 2.9 -3
v 3.8 3 -3
v 3.9 2.7 -3
v 3.9 2.9 -3
v 2.1 2.7 -3.5
v 2.1 2.9 -3.5
v 2.2 2.6 -3.5
v 2.2 2.7 -3.5
v 2.2 2.8 -3.5
v 2.2 2.9 -3.5
v 2.2 3 -3.5
v 2.3 2.5 -3.5
v 2.3 2.6 -3.5
v 2.3 2.7 -3.5
v 2.3 2.8 -3.5
v 2.3 3 -3.5
v 2.3 3.1 -3.5
v 2.4 2.4 -3.5
v 2.4 2.5 -3.5
v 2.4 2.6 -3.5
v 2.4 2.7 -3.5
v 2.4 2.9 -3.5
v 2.4 3 -3.5
v 2.4 3.1 -3.5
v 2.4 3.2 -3.5
v 2.5 2.3 -3.5
v 2.5 2.4 -3.5
v 2.5 2.5 -3.5
v 2.5 2.6 -3.5
v 2.5 2.9 -3.5
v 2.5 3 -3.5
v 2.5 3.1 -3.5
v 2.5 3.2 -3.5
v 2.6 2.2 -3.5
v 2.6 2.3 -3.5
v 2.6 2.4 -3.5
v 2.6 2.5 -3.5
v 2.6 2.8 -3.5
v 2.6 2.9 -3.5
v 2.6 3 -3.5
v 2.6 3.1 -3.5
v 2.7 2.1 -3.5
v 2.7 2.2 -3.5
v 2.7 2.3 -3.5
v 2.7 2.4 -3.5
v 2.7 2.7 -3.5
v 2.7 2.8 -3.5
v 2.7 2.9 -3.5
v 2.7 3 -3.5
v 2.8 2 -3.5
v 2.8 2.1 -3.5
v 2.8 2.2 -3.5
v 2.8 2.3 -3.5
v 2.8 2.6 -3.5
v 2.8 2.7 -3.5
v 2.8 2.8 -3.5
v 2.8 2.9 -3.5
v 2.9 2.1 -3.5
v 2.9 2.2 -3.5
v 2.9 2.7 -3.5
v 2.9 2.8 -3.5
v 3.1 2.1 -3.5
v 3.1 2.2 -3.5
v 3.1 2.7 -3.5
v 3.1 2.8 -3.5
v 3.2 2 -3.5
v 3.2 2.1 -3.5
v 3.2 2.2 -3.5
v 3.2 2.3 -3.5
v 3.2 2.6 -3.5
v 3.2 2.7 -3.5
v 3.2 2.8 -3.5
v 3.2 2.9 -3.5
v 3.3 2.1 -3.5
v 3.3 2.2 -3.5
v 3.3 2.3 -3.5
v 3.3 2.4 -3.5
v 3.3 2.7 -3.5
v 3.3 2.8 -3.5
v 3.3 2.9 -3.5
v 3.3 3 -3.5
v 3.4 2.2 -3.5
v 3.4 2.3 -3.5
v 3.4 2.4 -3.5
v 3.4 2.5 -3.5
v 3.4 2.8 -3.5
v 3.4 2.9 -3.5
v 3.4 3 -3.5
v 3.4 3.1 -3.5
v 3.5 2.3 -3.5
v 3.5 2.4 -3.5
v 3.5 2.5 -3.5
v 3.5 2.6 -3.5
v 3.5 2.9 -3.5
v 3.5 3 -3.5
v 3.5 3.1 -3.5
v 3.5 3.2 -3.5
v 3.6 2.4 -3.5
v 3.6 2.5 -3.5
v 3.6 2.6 -3.5
v 3.6 2.7 -3.5
v 3.6 2.9 -3.5
v 3.6 3 -3.5
v 3.6 3.1 -3.5
v 3.6 3.2 -3.5
v 3.7 2.5 -3.5
v 3.7 2.6 -3.5
v 3.7 2.7 -3.5
v 3.7 2.8 -3.5
v 3.7 3 -3.5
v 3.7 3.1 -3.5
v 3.8 2.6 -3.5
v 3.8 2.7 -3.5
v 3.8 2.8 -3.5
v 3.8 2.9 -3.5
v 3.8 3 -3.5
v 3.9 2.7 -3.5
v 3.9 2.9 -3.5
v 2.8 2 -3
v 3.2 2 -3
v 2.8 2 -3.5
v 3.2 2 -3.5
v 2.7 2.1 -3
v 2.8 2.1 -3
v 3.2 2.1 -3
v 3.3 2.1 -3
v 2.7 2.1 -3.5
v 2.8 2.1 -3.5
v 3.2 2.1 -3.5
v 3.3 2.1 -3.5
v 2.6 2.2 -3
v 2.7 2.2 -3
v 3.3 2.2 -3
v 3.4 2.2 -3
v 2.6 2.2 -3.5
v 2.7 2.2 -3.5
v 3.3 2.2 -3.5
v 3.4 2.2 -3.5
v 2.5 2.3 -3
v 2.6 2.3 -3
v 3.4 2.3 -3
v 3.5 2.3 -3
v 2.5 2.3 -3.5
v 2.6 2.3 -3.5
v 3.4 2.3 -3.5
v 3.5 2.3 -3.5
v 2.4 2.4 -3
v 2.5 2.4 -3
v 3.5 2.4 -3
v 3.6 2.4 -3
v 2.4 2.4 -3.5
v 2.5 2.4 -3.5
v 3.5 2.4 -3.5
v 3.6 2.4 -3.5
v 2.3 2.5 -3
v 2.4 2.5 -3
v 3.6 2.5 -3
v 3.7 2.5 -3
v 2.3 2.5 -3.5
v 2.4 2.5 -3.5
v 3.6 2.5 -3.5
v 3.7 2.5 -3.5
v 2.2 2.6 -3
v 2.3 2.6 -3
v 3.7 2.6 -3
v 3.8 2.6 -3
v 2.2 2.6 -3.5
v 2.3 2.6 -3.5
v 3.7 2.6 -3.5
v 3.8 2.6 -3.5
v 2.1 2.7 -3
v 2.2 2.7 -3
v 3.8 2.7 -3
v 3.9 2.7 -3
v 2.1 2.7 -3.5
v 2.2 2.7 -3.5
v 3.8 2.7 -3.5
v 3.9 2.7 -3.5
v 2.9 2.7 -3
v 3.1 2.7 -3
v 2.9 2.7 -3.5
v 3.1 2.7 -3.5
v 2.8 2.8 -3
v 2.9 2.8 -3
v 3.1 2.8 -3
v 3.2 2.8 -3
v 2.8 2.8 -3.5
v 2.9 2.8 -3.5
v 3.1 2.8 -3.5
v 3.2 2.8 -3.5
v 2.1 2.9 -3
v 2.2 2.9 -3
v 2.7 2.9 -3
v 2.8 2.9 -3
v 3.2 2.9 -3
v 3.3 2.9 -3
v 3.8 2.9 -3
v 3.9 2.9 -3
v 2.1 2.9 -3.5
v 2.2 2.9 -3.5
v 2.7 2.9 -3.5
v 2.8 2.9 -3.5
v 3.2 2.9 -3.5
v 3.3 2.9 -3.5
v 3.8 2.9 -3.5
v 3.9 2.9 -3.5
v 2.2 3 -3
v 2.3 3 -3
v 2.6 3 -3
v 2.7 3 -3
v 3.3 3 -3
v 3.4 3 -3
v 3.7 3 -3
v 3.8 3 -3
v 2.2 3 -3.5
v 2.3 3 -3.5
v 2.6 3 -3.5
v 2.7 3 -3.5
v 3.3 3 -3.5
v 3.4 3 -3.5
v 3.7 3 -3.5
v 3.8 3 -3.5
v 2.3 3.1 -3
v 2.4 3.1 -3
v 2.5 3.1 -3
v 2.6 3.1 -3
v 3.4 3.1 -3
v 3.5 3.1 -3
v 3.6 3.1 -3
v 3.7 3.1 -3
v 2.3 3.1 -3.5
v 2.4 3.1 -3.5
v 2.5 3.1 -3.5
v 2.6 3.1 -3.5
v 3.4 3.1 -3.5
v 3.5 3.1 -3.5
v 3.6 3.1 -3.5
v 3.7 3.1 -3.5
v 2.4 3.2 -3
v 2.5 3.2 -3
v 3.5 3.2 -3
v 3.6 3.2 -3
v 2.4 3.2 -3.5
v 2.5 3.2 -3.5
v 3.5 3.2 -3.5
v 3.6 3.2 -3.5

# faces
f 3/1/1 2/1/1 1/1/1
f 4/1/1 2/1/1 3/1/1
f 7/1/1 6/1/1 5/1/1
f 8/1/1 6/1/1 7/1/1
f 11/1/1 10/1/1 9/1/1
f 12/1/1 10/1/1 11/1/1
f 15/1/1 14/1/1 13/1/1
f 16/1/1 14/1/1 15/1/1
f 19/1/1 18/1/1 17/1/1
f 20/1/1 18/1/1 19/1/1
f 23/1/1 22/1/1 21/1/1
f 24/1/1 22/1/1 23/1/1
f 27/1/1 26/1/1 25/1/1
f 28/1/1 26/1/1 27/1/1
f 31/1/1 30/1/1 29/1/1
f 32/1/1 30/1/1 31/1/1
f 35/1/1 34/1/1 33/1/1
f 36/1/1 34/1/1 35/1/1
f 39/1/1 38/1/1 37/1/1
f 40/1/1 38/1/1 39/1/1
f 43/1/1 42/1/1 41/1/1
f 44/1/1 42/1/1 43/1/1
f 47/1/1 46/1/1 45/1/1
f 48/1/1 46/1/1 47/1/1
f 51/1/1 50/1/1 49/1/1
f 52/1/1 50/1/1 51/1/1
f 55/1/1 54/1/1 53/1/1
f 56/1/1 54/1/1 55/1/1
f 59/1/1 58/1/1 57/1/1
f 60/1/1 58/1/1 59/1/1
f 63/1/1 62/1/1 61/1/1
f 64/1/1 62/1/1 63/1/1
f 65/1/2 66/1/2 67/1/2
f 67/1/2 66/1/2 68/1/2
f 69/1/2 70/1/2 71/1/2
f 71/1/2 70/1/2 72/1/2
f 73/1/2 74/1/2 75/1/2
f 75/1/2 74/1/2 76/1/2
f 77/1/2 78/1/2 79/1/2
f 79/1/2 78/1/2 80/1/2
f 81/1/2 82/1/2 83/1/2
f 83/1/2 82/1/2 84/1/2
f 85/1/2 86/1/2 87/1/2
f 87/1/2 86/1/2 88/1/2
f 89/1/2 90/1/2 91/1/2
f 91/1/2 90/1/2 92/1/2
f 93/1/2 94/1/2 95/1/2
f 95/1/2 94/1/2 96/1/2
f 97/1/2 98/1/2 99/1/2
f 99/1/2 98/1/2 100/1/2
f 101/1/2 102/1/2 103/1/2
f 103/1/2 102/1/2 104/1/2
f 105/1/2 106/1/2 107/1/2
f 107/1/2 106/1/2 108/1/2
f 109/1/2 110/1/2 111/1/2
f 111/1/2 110/1/2 112/1/2
f 113/1/2 114/1/2 115/1/2
f 115/1/2 114/1/2 116/1/2
f 117/1/2 118/1/2 119/1/2
f 119/1/2 118/1/2 120/1/2
f 121/1/2 122/1/2 123/1/2
f 123/1/2 122/1/2 124/1/2
f 125/1/2 126/1/2 127/1/2
f 127/1/2 126/1/2 128/1/2
f 132/1/3 130/1/3 129/1/3
f 133/1/3 130/1/3 132/1/3
f 134/1/3 130/1/3 133/1/3
f 137/1/3 132/1/3 131/1/3
f 137/1/3 133/1/3 132/1/3
f 138/1/3 133/1/3 137/1/3
f 139/3/3 134/3/3 133/3/3
f 139/1/3 133/1/3 138/1/3
f 140/1/3 135/1/3 134/1/3
f 143/1/3 138/1/3 137/1/3
f 143/1/3 137/1/3 136/1/3
f 144/1/3 138/1/3 143/1/3
f 145/3/3 139/3/3 138/3/3
f 145/1/3 138/1/3 144/1/3
f 146/3/3 134/3/3 139/3/3
f 146/3/3 139/3/3 145/3/3
f 146/1/3 141/1/3 140/1/3
f 146/1/3 140/1/3 134/1/3
f 147/1/3 141/1/3 146/1/3
f 148/1/3 141/1/3 147/1/3
f 151/1/3 143/1/3 142/1/3
f 151/1/3 144/1/3 143/1/3
f 152/1/3 144/1/3 151/1/3
f 153/3/3 145/3/3 144/3/3
f 153/1/3 144/1/3 152/1/3
f 153/3/3 146/3/3 145/3/3
f 153/3/3 147/3/3 146/3/3
f 154/3/3 147/3/3 153/3/3
f 155/1/3 149/1/3 148/1/3
f 155/3/3 147/3/3 154/3/3
f 155/1/3 148/1/3 147/1/3
f 156/1/3 149/1/3 155/1/3
f 157/1/3 149/1/3 156/1/3
f 159/1/3 152/1/3 151/1/3
f 159/1/3 151/1/3 150/1/3
f 160/1/3 152/1/3 159/1/3
f 161/3/3 154/3/3 153/3/3
f 161/1/3 152/1/3 160/1/3
f 161/3/3 153/3/3 152/3/3
f 162/3/3 154/3/3 161/3/3
f 163/1/3 156/1/3 155/1/3
f 163/3/3 154/3/3 162/3/3
f 163/1/3 155/1/3 154/1/3
f 164/1/3 156/1/3 163/1/3
f 165/1/3 156/1/3 164/1/3
f 167/1/3 160/1/3 159/1/3
f 167/1/3 159/1/3 158/1/3
f 168/1/3 160/1/3 167/1/3
f 169/3/3 162/3/3 161/3/3
f 169/1/3 160/1/3 168/1/3
f 169/3/3 161/3/3 160/3/3
f 170/3/3 162/3/3 169/3/3
f 171/1/3 164/1/3 163/1/3
f 171/3/3 162/3/3 170/3/3
f 171/1/3 163/1/3 162/1/3
f 172/1/3 164/1/3 171/1/3
f 173/1/3 164/1/3 172/1/3
f 175/1/3 168/1/3 167/1/3
f 175/1/3 167/1/3 166/1/3
f 176/1/3 168/1/3 175/1/3
f 177/3/3 170/3/3 169/3/3
f 177/1/3 168/1/3 176/1/3
f 177/3/3 169/3/3 168/3/3
f 178/3/3 170/3/3 177/3/3
f 179/1/3 172/1/3 171/1/3
f 179/3/3 170/3/3 178/3/3
f 179/1/3 171/1/3 170/1/3
f 180/1/3 172/1/3 179/1/3
f 181/1/3 172/1/3 180/1/3
f 182/1/3 176/1/3 175/1/3
f 182/1/3 175/1/3 174/1/3
f 183/3/3 178/3/3 177/3/3
f 183/1/3 176/1/3 182/1/3
f 183/3/3 177/3/3 176/3/3
f 184/1/3 180/1/3 179/1/3
f 184/1/3 179/1/3 178/1/3
f 185/1/3 180/1/3 184/1/3
f 186/1/3 182/1/3 174/1/3
f 186/2/3 183/2/3 182/2/3
f 187/3/3 178/3/3 183/3/3
f 187/2/3 183/2/3 186/2/3
f 188/1/3 184/1/3 178/1/3
f 190/1/3 186/1/3 174/1/3
f 190/1/3 187/1/3 186/1/3
f 191/1/3 187/1/3 190/1/3
f 192/3/3 178/3/3 187/3/3
f 192/1/3 187/1/3 191/1/3
f 193/3/3 178/3/3 192/3/3
f 194/1/3 189/1/3 188/1/3
f 194/3/3 178/3/3 193/3/3
f 194/1/3 188/1/3 178/1/3
f 195/1/3 189/1/3 194/1/3
f 196/1/3 189/1/3 195/1/3
f 198/1/3 193/1/3 192/1/3
f 198/1/3 192/1/3 191/1/3
f 199/1/3 193/1/3 198/1/3
f 200/3/3 195/3/3 194/3/3
f 200/1/3 193/1/3 199/1/3
f 200/3/3 194/3/3 193/3/3
f 201/3/3 195/3/3 200/3/3
f 202/1/3 196/1/3 195/1/3
f 202/3/3 195/3/3 201/3/3
f 202/1/3 197/1/3 196/1/3
f 203/1/3 197/1/3 202/1/3
f 204/1/3 197/1/3 203/1/3
f 206/1/3 201/1/3 200/1/3
f 206/1/3 200/1/3 199/1/3
f 207/1/3 201/1/3 206/1/3
f 208/3/3 203/3/3 202/3/3
f 208/1/3 201/1/3 207/1/3
f 208/3/3 202/3/3 201/3/3
f 209/3/3 203/3/3 208/3/3
f 210/1/3 204/1/3 203/1/3
f 210/3/3 203/3/3 209/3/3
f 210/1/3 205/1/3 204/1/3
f 211/1/3 205/1/3 210/1/3
f 212/1/3 205/1/3 211/1/3
f 214/1/3 209/1/3 208/1/3
f 214/1/3 208/1/3 207/1/3
f 215/1/3 209/1/3 214/1/3
f 216/3/3 211/3/3 210/3/3
f 216/1/3 209/1/3 215/1/3
f 216/3/3 210/3/3 209/3/3
f 217/3/3 211/3/3 216/3/3
f 218/1/3 213/1/3 212/1/3
f 218/3/3 211/3/3 217/3/3
f 218/1/3 212/1/3 211/1/3
f 219/1/3 213/1/3 218/1/3
f 220/1/3 213/1/3 219/1/3
f 222/1/3 217/1/3 216/1/3
f 222/1/3 216/1/3 215/1/3
f 223/1/3 217/1/3 222/1/3
f 224/3/3 219/3/3 218/3/3
f 224/1/3 217/1/3 223/1/3
f 224/3/3 218/3/3 217/3/3
f 225/3/3 219/3/3 224/3/3
f 226/3/3 219/3/3 225/3/3
f 227/1/3 220/1/3 219/1/3
f 227/3/3 219/3/3 226/3/3
f 227/1/3 221/1/3 220/1/3
f 228/1/3 221/1/3 227/1/3
f 229/1/3 221/1/3 228/1/3
f 230/1/3 225/1/3 224/1/3
f 230/1/3 224/1/3 223/1/3
f 231/1/3 225/1/3 230/1/3
f 232/3/3 226/3/3 225/3/3
f 232/1/3 225/1/3 231/1/3
f 233/3/3 226/3/3 232/3/3
f 234/1/3 228/1/3 227/1/3
f 234/1/3 227/1/3 226/1/3
f 235/1/3 228/1/3 234/1/3
f 236/1/3 233/1/3 232/1/3
f 236/1/3 232/1/3 231/1/3
f 237/1/3 233/1/3 236/1/3
f 238/3/3 226/3/3 233/3/3
f 238/1/3 233/1/3 237/1/3
f 239/1/3 234/1/3 226/1/3
f 239/3/3 226/3/3 238/3/3
f 240/1/3 234/1/3 239/1/3
f 241/1/3 238/1/3 237/1/3
f 241/1/3 239/1/3 238/1/3
f 242/1/3 239/1/3 241/1/3
f 243/1/4 244/1/4 246/1/4
f 246/1/4 244/1/4 247/1/4
f 247/1/4 244/1/4 248/1/4
f 245/1/4 246/1/4 251/1/4
f 246/1/4 247/1/4 251/1/4
f 251/1/4 247/1/4 252/1/4
f 247/3/4 248/3/4 253/3/4
f 252/1/4 247/1/4 253/1/4
f 248/1/4 249/1/4 254/1/4
f 251/1/4 252/1/4 257/1/4
f 250/1/4 251/1/4 257/1/4
f 257/1/4 252/1/4 258/1/4
f 252/3/4 253/3/4 259/3/4
f 258/1/4 252/1/4 259/1/4
f 253/3/4 248/3/4 260/3/4
f 259/3/4 253/3/4 260/3/4
f 254/1/4 255/1/4 260/1/4
f 248/1/4 254/1/4 260/1/4
f 260/1/4 255/1/4 261/1/4
f 261/1/4 255/1/4 262/1/4
f 256/1/4 257/1/4 265/1/4
f 257/1/4 258/1/4 265/1/4
f 265/1/4 258/1/4 266/1/4
f 258/3/4 259/3/4 267/3/4
f 266/1/4 258/1/4 267/1/4
f 259/3/4 260/3/4 267/3/4
f 260/3/4 261/3/4 267/3/4
f 267/3/4 261/3/4 268/3/4
f 262/1/4 263/1/4 269/1/4
f 268/3/4 261/3/4 269/3/4
f 261/1/4 262/1/4 269/1/4
f 269/1/4 263/1/4 270/1/4
f 270/1/4 263/1/4 271/1/4
f 265/1/4 266/1/4 273/1/4
f 264/1/4 265/1/4 273/1/4
f 273/1/4 266/1/4 274/1/4
f 267/3/4 268/3/4 275/3/4
f 274/1/4 266/1/4 275/1/4
f 266/3/4 267/3/4 275/3/4
f 275/3/4 268/3/4 276/3/4
f 269/1/4 270/1/4 277/1/4
f 276/3/4 268/3/4 277/3/4
f 268/1/4 269/1/4 277/1/4
f 277/1/4 270/1/4 278/1/4
f 278/1/4 270/1/4 279/1/4
f 273/1/4 274/1/4 281/1/4
f 272/1/4 273/1/4 281/1/4
f 281/1/4 274/1/4 282/1/4
f 275/3/4 276/3/4 283/3/4
f 282/1/4 274/1/4 283/1/4
f 274/3/4 275/3/4 283/3/4
f 283/3/4 276/3/4 284/3/4
f 277/1/4 278/1/4 285/1/4
f 284/3/4 276/3/4 285/3/4
f 276/1/4 277/1/4 285/1/4
f 285/1/4 278/1/4 286/1/4
f 286/1/4 278/1/4 287/1/4
f 281/1/4 282/1/4 289/1/4
f 280/1/4 281/1/4 289/1/4
f 289/1/4 282/1/4 290/1/4
f 283/3/4 284/3/4 291/3/4
f 290/1/4 282/1/4 291/1/4
f 282/3/4 283/3/4 291/3/4
f 291/3/4 284/3/4 292/3/4
f 285/1/4 286/1/4 293/1/4
f 292/3/4 284/3/4 293/3/4
f 284/1/4 285/1/4 293/1/4
f 293/1/4 286/1/4 294/1/4
f 294/1/4 286/1/4 295/1/4
f 289/1/4 290/1/4 296/1/4
f 288/1/4 289/1/4 296/1/4
f 291/3/4 292/3/4 297/3/4
f 296/1/4 290/1/4 297/1/4
f 290/3/4 291/3/4 297/3/4
f 293/1/4 294/1/4 298/1/4
f 292/1/4 293/1/4 298/1/4
f 298/1/4 294/1/4 299/1/4
f 288/1/4 296/1/4 300/1/4
f 296/2/4 297/2/4 300/2/4
f 297/3/4 292/3/4 301/3/4
f 300/2/4 297/2/4 301/2/4
f 292/1/4 298/1/4 302/1/4
f 288/1/4 300/1/4 304/1/4
f 300/1/4 301/1/4 304/1/4
f 304/1/4 301/1/4 305/1/4
f 301/3/4 292/3/4 306/3/4
f 305/1/4 301/1/4 306/1/4
f 306/3/4 292/3/4 307/3/4
f 302/1/4 303/1/4 308/1/4
f 307/3/4 292/3/4 308/3/4
f 292/1/4 302/1/4 308/1/4
f 308/1/4 303/1/4 309/1/4
f 309/1/4 303/1/4 310/1/4
f 306/1/4 307/1/4 312/1/4
f 305/1/4 306/1/4 312/1/4
f 312/1/4 307/1/4 313/1/4
f 308/3/4 309/3/4 314/3/4
f 313/1/4 307/1/4 314/1/4
f 307/3/4 308/3/4 314/3/4
f 314/3/4 309/3/4 315/3/4
f 309/1/4 310/1/4 316/1/4
f 315/3/4 309/3/4 316/3/4
f 310/1/4 311/1/4 316/1/4
f 316/1/4 311/1/4 317/1/4
f 317/1/4 311/1/4 318/1/4
f 314/1/4 315/1/4 320/1/4
f 313/1/4 314/1/4 320/1/4
f 320/1/4 315/1/4 321/1/4
f 316/3/4 317/3/4 322/3/4
f 321/1/4 315/1/4 322/1/4
f 315/3/4 316/3/4 322/3/4
f 322/3/4 317/3/4 323/3/4
f 317/1/4 318/1/4 324/1/4
f 323/3/4 317/3/4 324/3/4
f 318/1/4 319/1/4 324/1/4
f 324/1/4 319/1/4 325/1/4
f 325/1/4 319/1/4 326/1/4
f 322/1/4 323/1/4 328/1/4
f 321/1/4 322/1/4 328/1/4
f 328/1/4 323/1/4 329/1/4
f 324/3/4 325/3/4 330/3/4
f 329/1/4 323/1/4 330/1/4
f 323/3/4 324/3/4 330/3/4
f 330/3/4 325/3/4 331/3/4
f 326/1/4 327/1/4 332/1/4
f 331/3/4 325/3/4 332/3/4
f 325/1/4 326/1/4 332/1/4
f 332/1/4 327/1/4 333/1/4
f 333/1/4 327/1/4 334/1/4
f 330/1/4 331/1/4 336/1/4
f 329/1/4 330/1/4 336/1/4
f 336/1/4 331/1/4 337/1/4
f 332/3/4 333/3/4 338/3/4
f 337/1/4 331/1/4 338/1/4
f 331/3/4 332/3/4 338/3/4
f 338/3/4 333/3/4 339/3/4
f 339/3/4 333/3/4 340/3/4
f 333/1/4 334/1/4 341/1/4
f 340/3/4 333/3/4 341/3/4
f 334/1/4 335/1/4 341/1/4
f 341/1/4 335/1/4 342/1/4
f 342/1/4 335/1/4 343/1/4
f 338/1/4 339/1/4 344/1/4
f 337/1/4 338/1/4 344/1/4
f 344/1/4 339/1/4 345/1/4
f 339/3/4 340/3/4 346/3/4
f 345/1/4 339/1/4 346/1/4
f 346/3/4 340/3/4 347/3/4
f 341/1/4 342/1/4 348/1/4
f 340/1/4 341/1/4 348/1/4
f 348/1/4 342/1/4 349/1/4
f 346/1/4 347/1/4 350/1/4
f 345/1/4 346/1/4 350/1/4
f 350/1/4 347/1/4 351/1/4
f 347/3/4 340/3/4 352/3/4
f 351/1/4 347/1/4 352/1/4
f 340/1/4 348/1/4 353/1/4
f 352/3/4 340/3/4 353/3/4
f 353/1/4 348/1/4 354/1/4
f 351/1/4 352/1/4 355/1/4
f 352/1/4 353/1/4 355/1/4
f 355/1/4 353/1/4 356/1/4
f 359/1/5 358/1/5 357/1/5
f 360/1/5 358/1/5 359/1/5
f 365/1/5 362/1/5 361/1/5
f 366/1/5 362/1/5 365/1/5
f 367/1/5 364/1/5 363/1/5
f 368/1/5 364/1/5 367/1/5
f 373/1/5 370/1/5 369/1/5
f 374/1/5 370/1/5 373/1/5
f 375/1/5 372/1/5 371/1/5
f 376/1/5 372/1/5 375/1/5
f 381/1/5 378/1/5 377/1/5
f 382/1/5 378/1/5 381/1/5
f 383/1/5 380/1/5 379/1/5
f 384/1/5 380/1/5 383/1/5
f 389/1/5 386/1/5 385/1/5
f 390/1/5 386/1/5 389/1/5
f 391/1/5 388/1/5 387/1/5
f 392/1/5 388/1/5 391/1/5
f 397/1/5 394/1/5 393/1/5
f 398/1/5 394/1/5 397/1/5
f 399/1/5 396/1/5 395/1/5
f 400/1/5 396/1/5 399/1/5
f 405/1/5 402/1/5 401/1/5
f 406/1/5 402/1/5 405/1/5
f 407/1/5 404/1/5 403/1/5
f 408/1/5 404/1/5 407/1/5
f 413/1/5 410/1/5 409/1/5
f 414/1/5 410/1/5 413/1/5
f 415/1/5 412/1/5 411/1/5
f 416/1/5 412/1/5 415/1/5
f 417/1/6 418/1/6 419/1/6
f 419/1/6 418/1/6 420/1/6
f 421/1/6 422/1/6 425/1/6
f 425/1/6 422/1/6 426/1/6
f 423/1/6 424/1/6 427/1/6
f 427/1/6 424/1/6 428/1/6
f 429/1/6 430/1/6 437/1/6
f 437/1/6 430/1/6 438/1/6
f 431/1/6 432/1/6 439/1/6
f 439/1/6 432/1/6 440/1/6
f 433/1/6 434/1/6 441/1/6
f 441/1/6 434/1/6 442/1/6
f 435/1/6 436/1/6 443/1/6
f 443/1/6 436/1/6 444/1/6
f 445/1/6 446/1/6 453/1/6
f 453/1/6 446/1/6 454/1/6
f 447/1/6 448/1/6 455/1/6
f 455/1/6 448/1/6 456/1/6
f 449/1/6 450/1/6 457/1/6
f 457/1/6 450/1/6 458/1/6
f 451/1/6 452/1/6 459/1/6
f 459/1/6 452/1/6 460/1/6
f 461/1/6 462/1/6 469/1/6
f 469/1/6 462/1/6 470/1/6
f 463/1/6 464/1/6 471/1/6
f 471/1/6 464/1/6 472/1/6
f 465/1/6 466/1/6 473/1/6
f 473/1/6 466/1/6 474/1/6
f 467/1/6 468/1/6 475/1/6
f 475/1/6 468/1/6 476/1/6
f 477/1/6 478/1/6 481/1/6
f 481/1/6 478/1/6 482/1/6
f 479/1/6 480/1/6 483/1/6
f 483/1/6 480/1/6 484/1/6
